<?xml version="1.0" encoding="UTF-8" standalone="no"?>
<!-- Generator: Adobe Illustrator 27.5.0, SVG Export Plug-In . SVG Version: 6.00 Build 0)  -->

<svg
   version="1.1"
   id="Capa_1"
   x="0px"
   y="0px"
   viewBox="0 0 2122 2122"
   style="enable-background:new 0 0 2122 2122;"
   xml:space="preserve"
   sodipodi:docname="potion.svg"
   inkscape:version="1.4.2 (f4327f4, 2025-05-13)"
   xmlns:inkscape="http://www.inkscape.org/namespaces/inkscape"
   xmlns:sodipodi="http://sodipodi.sourceforge.net/DTD/sodipodi-0.dtd"
   xmlns="http://www.w3.org/2000/svg"
   xmlns:svg="http://www.w3.org/2000/svg"><defs
   id="defs12" /><sodipodi:namedview
   id="namedview12"
   pagecolor="#ffffff"
   bordercolor="#000000"
   borderopacity="0.25"
   inkscape:showpageshadow="2"
   inkscape:pageopacity="0.0"
   inkscape:pagecheckerboard="0"
   inkscape:deskcolor="#d1d1d1"
   inkscape:zoom="0.85532516"
   inkscape:cx="1061"
   inkscape:cy="1061"
   inkscape:window-width="3840"
   inkscape:window-height="2054"
   inkscape:window-x="2869"
   inkscape:window-y="-11"
   inkscape:window-maximized="1"
   inkscape:current-layer="g12" />
<g
   id="g12">
	<path
   style="fill:#D1E1EB;"
   d="M1276.382,844.885V584.528h25.309c43.313,0,78.75-35.438,78.75-78.751   c0-43.313-35.437-78.751-78.75-78.751H819.63c-43.313,0-78.751,35.438-78.751,78.751c0,43.313,35.439,78.751,78.751,78.751h25.309   v260.357c-224.536,86.624-383.844,304.465-383.844,559.545c0,331.13,268.434,599.564,599.564,599.564   s599.564-268.434,599.564-599.564C1660.224,1149.35,1500.917,931.509,1276.382,844.885z"
   id="path1" />
	<path
   style="fill:#9ECDE6;"
   d="M971.72,521.138h-25.311c-43.313,0-78.75-35.438-78.75-78.751c0-5.255,0.542-10.387,1.537-15.361   H819.63c-43.313,0-78.751,35.438-78.751,78.751c0,43.313,35.439,78.751,78.751,78.751h25.309v260.357   c-224.536,86.624-383.844,304.465-383.844,559.545c0,331.13,268.434,599.564,599.564,599.564   c63.676,0,125.017-9.962,182.593-28.352c-32.428,3.225-64.961,5.283-97.547,5.865c-86.115,1.539-173.238-7.17-255.647-33.108   c-81.667-25.705-157.182-68.89-218.663-128.716c-70.345-68.449-119.891-154.769-146.345-249.128   c-47.507-169.461-7.832-363.453,93.331-505.861c0,0,110.151-162.614,351.532-183.751c0.3-0.026,2.935-253.568,2.935-253.568   l161.067-42.847h142.466h25.309c38.058,0,70.015-27.367,77.213-63.39H971.72z"
   id="path2" />
	<path
   style="fill:#FFFFFF;"
   d="M1319.442,485.334h-257.555c-9.684,0-17.608-7.924-17.608-17.608l0,0   c0-9.685,7.924-17.608,17.608-17.608h257.555c9.684,0,17.608,7.924,17.608,17.608l0,0   C1337.05,477.411,1329.126,485.334,1319.442,485.334z"
   id="path3" />
	
	
	
	
		<ellipse
   transform="matrix(0.5 -0.866 0.866 0.5 -274.6768 1609.1263)"
   style="fill:#FFFFFF;"
   cx="1256.206"
   cy="1042.44"
   rx="105.729"
   ry="210.461"
   id="ellipse6" />
	<path
   style="fill:#FFFFFF;"
   d="M1526.553,1228.9c-13.704,15.096-41.065,12.58-61.112-5.619   c-20.047-18.199-25.188-45.19-11.484-60.286c13.705-15.096,41.066-12.58,61.112,5.619   C1535.116,1186.813,1540.258,1213.804,1526.553,1228.9z"
   id="path7" />
	<path
   style="fill:#F39452;"
   d="M1065.225,174.248c-111.51,13.509-203.883,15.245-212.964,4.374l10.552,248.403h390.743   l19.214-298.554l-0.184,0.021C1262.894,141.262,1174.265,161.038,1065.225,174.248z"
   id="path8" />
	<path
   style="fill:#EF7747;"
   d="M1164.241,384.442c-32.827-4.501-67.072-11.337-96.265-27.733   c-11.758-6.602-22.574-15.075-30.575-26.016c-10.341-14.138-13.722-32.001-15.545-49.074c-3.667-34.332,0.149-68.572,2.427-102.845   c-92.436,9.219-164.08,9.355-172.021-0.152l10.552,248.403h390.743l2.296-35.681   C1225.225,390.47,1194.604,388.605,1164.241,384.442z"
   id="path9" />
	<path
   style="fill:#F8B88A;"
   d="M1065.225,174.248c109.04-13.21,197.668-32.986,207.362-45.755c0.665-0.877,0.972-1.721,0.875-2.527   c-1.52-12.548-97.216-11.277-213.742,2.84c-116.526,14.117-209.756,35.733-208.236,48.282c0.066,0.54,0.368,1.045,0.777,1.535   C861.343,189.493,953.715,187.757,1065.225,174.248z"
   id="path10" />
	<path
   style="fill:#FFFFFF;"
   d="M1213.605,343.089L1213.605,343.089c-15.049-1.088-26.472-14.291-25.384-29.341l7.406-102.438   c1.088-15.049,14.291-26.472,29.34-25.384l0,0c15.049,1.088,26.472,14.291,25.384,29.34l-7.406,102.438   C1241.857,332.754,1228.654,344.177,1213.605,343.089z"
   id="path11" />
	
		
	
</g>
</svg>
